<?xml version="1.0" encoding="utf-8"?>
<!-- Generator: Adobe Illustrator 27.0.0, SVG Export Plug-In . SVG Version: 6.00 Build 0)  -->
<svg version="1.1" id="Ebene_1" xmlns="http://www.w3.org/2000/svg" xmlns:xlink="http://www.w3.org/1999/xlink" x="0px" y="0px"
	 viewBox="0 0 765.89 216.28" style="enable-background:new 0 0 765.89 216.28;" xml:space="preserve">
<style type="text/css">
	.st0{fill:#442F35;}
</style>
<g>
	<path class="st0" d="M41.07,169.18c0.17,0.2,0.25,0.45,0.25,0.76v30.83c0,0.31-0.08,0.56-0.25,0.76s-0.41,0.3-0.71,0.3
		c-0.31,0-0.55-0.1-0.71-0.3c-0.17-0.2-0.25-0.45-0.25-0.76v-14.79H17.5v14.79c0,0.31-0.09,0.56-0.25,0.76
		c-0.17,0.2-0.41,0.3-0.71,0.3c-0.31,0-0.55-0.1-0.71-0.3c-0.17-0.2-0.25-0.45-0.25-0.76v-30.83c0-0.31,0.08-0.56,0.25-0.76
		s0.41-0.3,0.71-0.3c0.31,0,0.55,0.1,0.71,0.3c0.17,0.2,0.25,0.45,0.25,0.76v14.29h21.89v-14.29c0-0.31,0.08-0.56,0.25-0.76
		s0.41-0.3,0.71-0.3C40.66,168.88,40.9,168.98,41.07,169.18z"/>
	<path class="st0" d="M66.88,198.77c-2.07-2.13-3.11-5.29-3.11-9.47v-19.36c0-0.34,0.08-0.6,0.25-0.78s0.41-0.28,0.71-0.28
		c0.28,0,0.5,0.1,0.67,0.3c0.17,0.2,0.25,0.45,0.25,0.76v19.68c0,6.97,3.47,10.46,10.42,10.46c3.41,0,5.99-0.88,7.74-2.63
		s2.63-4.36,2.63-7.83v-19.68c0-0.31,0.1-0.56,0.3-0.76c0.2-0.2,0.42-0.3,0.67-0.3c0.28,0,0.51,0.1,0.69,0.3
		c0.18,0.2,0.28,0.45,0.28,0.76v19.36c0,4.18-1.04,7.34-3.13,9.47c-2.09,2.14-5.15,3.2-9.17,3.2
		C72.01,201.97,68.95,200.91,66.88,198.77z"/>
	<path class="st0" d="M135.66,169.94v30.83c0,0.31-0.08,0.56-0.25,0.76s-0.41,0.3-0.71,0.3c-0.22,0-0.38-0.05-0.51-0.14
		c-0.12-0.09-0.26-0.25-0.41-0.46l-21.2-28.85v28.39c0,0.31-0.08,0.56-0.25,0.76s-0.39,0.3-0.67,0.3c-0.58,0-0.88-0.35-0.88-1.06
		v-30.83c0-0.31,0.08-0.56,0.25-0.76s0.42-0.3,0.76-0.3c0.21,0,0.38,0.04,0.48,0.11c0.11,0.08,0.25,0.22,0.44,0.44l21.15,28.85
		v-28.34c0-0.31,0.08-0.56,0.25-0.76s0.39-0.3,0.67-0.3C135.37,168.88,135.66,169.24,135.66,169.94z"/>
	<path class="st0" d="M158.68,201.28c-0.23-0.21-0.35-0.44-0.35-0.69v-30.46c0-0.28,0.12-0.51,0.35-0.71c0.23-0.2,0.5-0.3,0.81-0.3
		h8.85c5.07,0,8.99,1.39,11.75,4.17s4.15,6.8,4.15,12.05c0,5.22-1.38,9.24-4.15,12.05c-2.76,2.81-6.68,4.22-11.75,4.22h-8.85
		C159.18,201.6,158.91,201.5,158.68,201.28z M168.29,199.85c4.73,0,8.23-1.24,10.48-3.73c2.26-2.49,3.39-6.08,3.39-10.78
		c0-9.65-4.62-14.47-13.87-14.47h-8.07v28.99L168.29,199.85L168.29,199.85z"/>
	<path class="st0" d="M312.5,169.18c0.17,0.2,0.25,0.45,0.25,0.76v30.83c0,0.31-0.08,0.56-0.25,0.76s-0.41,0.3-0.71,0.3
		c-0.31,0-0.55-0.1-0.71-0.3c-0.17-0.2-0.25-0.45-0.25-0.76v-14.79h-21.89v14.79c0,0.31-0.09,0.56-0.25,0.76
		c-0.17,0.2-0.41,0.3-0.71,0.3c-0.31,0-0.55-0.1-0.71-0.3c-0.17-0.2-0.25-0.45-0.25-0.76v-30.83c0-0.31,0.08-0.56,0.25-0.76
		s0.41-0.3,0.71-0.3c0.31,0,0.55,0.1,0.71,0.3c0.17,0.2,0.25,0.45,0.25,0.76v14.29h21.89v-14.29c0-0.31,0.08-0.56,0.25-0.76
		s0.41-0.3,0.71-0.3S312.33,168.98,312.5,169.18z"/>
	<path class="st0" d="M362.25,201.05c0,0.25-0.08,0.44-0.25,0.58c-0.17,0.14-0.38,0.21-0.62,0.21c-0.46,0-0.78-0.22-0.97-0.65
		l-3.73-8.57h-18.39l-3.78,8.57c-0.18,0.43-0.49,0.65-0.92,0.65c-0.34,0-0.6-0.11-0.78-0.32c-0.18-0.21-0.22-0.49-0.09-0.83
		l13.64-31.11c0.18-0.49,0.55-0.74,1.11-0.74c0.25,0,0.47,0.07,0.67,0.21c0.2,0.14,0.35,0.32,0.44,0.53l13.59,31.11
		C362.21,200.87,362.25,200.99,362.25,201.05z M355.84,190.77l-8.39-19.17l-8.39,19.17H355.84z"/>
	<path class="st0" d="M384.8,198.77c-2.07-2.13-3.11-5.29-3.11-9.47v-19.36c0-0.34,0.08-0.6,0.25-0.78s0.41-0.28,0.71-0.28
		c0.28,0,0.5,0.1,0.67,0.3c0.17,0.2,0.25,0.45,0.25,0.76v19.68c0,6.97,3.47,10.46,10.42,10.46c3.41,0,5.99-0.88,7.74-2.63
		s2.63-4.36,2.63-7.83v-19.68c0-0.31,0.1-0.56,0.3-0.76c0.2-0.2,0.42-0.3,0.67-0.3c0.28,0,0.51,0.1,0.69,0.3
		c0.18,0.2,0.28,0.45,0.28,0.76v19.36c0,4.18-1.05,7.34-3.13,9.47c-2.09,2.14-5.15,3.2-9.17,3.2
		C389.94,201.97,386.88,200.91,384.8,198.77z"/>
	<path class="st0" d="M431.81,200.84c-2.1-0.75-3.76-1.76-4.95-3.02c-0.28-0.28-0.42-0.65-0.42-1.11c0-0.25,0.06-0.45,0.18-0.62
		c0.12-0.17,0.28-0.25,0.46-0.25c0.21,0,0.49,0.12,0.83,0.37c3.04,2.58,6.51,3.87,10.42,3.87c2.98,0,5.28-0.61,6.89-1.82
		c1.61-1.21,2.42-2.94,2.42-5.18c0-1.29-0.4-2.34-1.2-3.13c-0.8-0.8-1.78-1.41-2.95-1.82s-2.73-0.85-4.7-1.31
		c-2.67-0.65-4.72-1.21-6.13-1.71c-1.41-0.49-2.68-1.33-3.8-2.51c-1.12-1.18-1.68-2.8-1.68-4.86c0-1.78,0.47-3.36,1.41-4.72
		c0.94-1.37,2.26-2.42,3.96-3.16c1.71-0.74,3.66-1.11,5.88-1.11c2.12,0,4.13,0.37,6.01,1.11c1.89,0.74,3.42,1.75,4.59,3.04
		c0.31,0.34,0.46,0.71,0.46,1.11c0,0.25-0.07,0.45-0.21,0.62c-0.14,0.17-0.3,0.25-0.48,0.25c-0.28,0-0.54-0.12-0.78-0.37
		c-1.75-1.5-3.32-2.53-4.7-3.06c-1.38-0.54-3.01-0.81-4.89-0.81c-2.92,0-5.19,0.63-6.82,1.89s-2.44,3.03-2.44,5.3
		c0,1.35,0.36,2.46,1.08,3.32c0.72,0.86,1.64,1.54,2.77,2.03c1.12,0.49,2.53,0.95,4.22,1.38l1.98,0.46c2.21,0.49,4.01,0.99,5.39,1.5
		s2.56,1.3,3.53,2.37c0.97,1.08,1.45,2.52,1.45,4.33c0,1.72-0.47,3.24-1.41,4.56s-2.26,2.35-3.96,3.09
		c-1.71,0.74-3.66,1.11-5.88,1.11C436.09,201.97,433.92,201.6,431.81,200.84z"/>
	<path class="st0" d="M576.83,169.18c0.17,0.2,0.25,0.45,0.25,0.76v30.83c0,0.31-0.09,0.56-0.25,0.76c-0.17,0.2-0.41,0.3-0.71,0.3
		c-0.31,0-0.55-0.1-0.71-0.3c-0.17-0.2-0.25-0.45-0.25-0.76v-14.79h-21.89v14.79c0,0.31-0.09,0.56-0.25,0.76
		c-0.17,0.2-0.41,0.3-0.72,0.3s-0.54-0.1-0.71-0.3c-0.17-0.2-0.25-0.45-0.25-0.76v-30.83c0-0.31,0.09-0.56,0.25-0.76
		c0.17-0.2,0.41-0.3,0.71-0.3c0.31,0,0.55,0.1,0.72,0.3c0.17,0.2,0.25,0.45,0.25,0.76v14.29h21.89v-14.29
		c0-0.31,0.08-0.56,0.25-0.76s0.41-0.3,0.71-0.3C576.42,168.88,576.66,168.98,576.83,169.18z"/>
	<path class="st0" d="M602.63,198.77c-2.07-2.13-3.11-5.29-3.11-9.47v-19.36c0-0.34,0.08-0.6,0.25-0.78s0.41-0.28,0.71-0.28
		c0.28,0,0.5,0.1,0.67,0.3c0.17,0.2,0.25,0.45,0.25,0.76v19.68c0,6.97,3.47,10.46,10.42,10.46c3.41,0,5.99-0.88,7.74-2.63
		s2.63-4.36,2.63-7.83v-19.68c0-0.31,0.1-0.56,0.3-0.76s0.42-0.3,0.67-0.3c0.28,0,0.51,0.1,0.69,0.3c0.18,0.2,0.28,0.45,0.28,0.76
		v19.36c0,4.18-1.04,7.34-3.13,9.47c-2.09,2.14-5.15,3.2-9.17,3.2C607.77,201.97,604.71,200.91,602.63,198.77z M606.97,170.58
		c-0.32-0.31-0.48-0.69-0.48-1.15s0.16-0.84,0.48-1.15s0.71-0.46,1.17-0.46c0.43,0,0.81,0.15,1.13,0.46s0.48,0.69,0.48,1.15
		s-0.15,0.85-0.46,1.15c-0.31,0.31-0.69,0.46-1.15,0.46S607.29,170.89,606.97,170.58z M614.36,170.58
		c-0.31-0.31-0.46-0.69-0.46-1.15s0.16-0.84,0.48-1.15s0.7-0.46,1.13-0.46c0.46,0,0.85,0.15,1.17,0.46s0.48,0.69,0.48,1.15
		s-0.16,0.85-0.48,1.15c-0.32,0.31-0.71,0.46-1.17,0.46S614.67,170.89,614.36,170.58z"/>
	<path class="st0" d="M654.85,201.54c-0.17-0.2-0.25-0.45-0.25-0.76v-29.91h-11.3c-0.25,0-0.45-0.08-0.6-0.23
		c-0.15-0.15-0.23-0.37-0.23-0.65c0-0.25,0.08-0.45,0.23-0.62c0.15-0.17,0.35-0.25,0.6-0.25h24.47c0.21,0,0.42,0.08,0.6,0.25
		s0.28,0.38,0.28,0.62c0,0.28-0.09,0.49-0.28,0.65c-0.18,0.15-0.38,0.23-0.6,0.23h-11.25v29.91c0,0.31-0.08,0.56-0.25,0.76
		s-0.41,0.3-0.71,0.3S655.02,201.73,654.85,201.54z"/>
	<path class="st0" d="M695.59,201.54c-0.17-0.2-0.25-0.45-0.25-0.76v-29.91h-11.29c-0.25,0-0.45-0.08-0.6-0.23
		c-0.15-0.15-0.23-0.37-0.23-0.65c0-0.25,0.08-0.45,0.23-0.62c0.15-0.17,0.35-0.25,0.6-0.25h24.47c0.21,0,0.42,0.08,0.6,0.25
		s0.28,0.38,0.28,0.62c0,0.28-0.09,0.49-0.28,0.65c-0.18,0.15-0.38,0.23-0.6,0.23h-11.25v29.91c0,0.31-0.08,0.56-0.25,0.76
		s-0.41,0.3-0.71,0.3C695.99,201.83,695.76,201.73,695.59,201.54z"/>
	<path class="st0" d="M728.35,201.28c-0.23-0.21-0.35-0.44-0.35-0.69v-30.46c0-0.28,0.12-0.51,0.35-0.71c0.23-0.2,0.5-0.3,0.81-0.3
		h17.74c0.25,0,0.45,0.08,0.6,0.25c0.15,0.17,0.23,0.39,0.23,0.67c0,0.25-0.08,0.45-0.23,0.62c-0.15,0.17-0.35,0.25-0.6,0.25h-16.96
		v13.32h16.04c0.25,0,0.45,0.08,0.6,0.23c0.15,0.15,0.23,0.37,0.23,0.65s-0.08,0.5-0.23,0.67c-0.15,0.17-0.35,0.25-0.6,0.25h-16.04
		v13.78h16.96c0.25,0,0.45,0.08,0.6,0.23c0.15,0.15,0.23,0.37,0.23,0.65s-0.08,0.5-0.23,0.67c-0.15,0.17-0.35,0.25-0.6,0.25h-17.74
		C728.85,201.6,728.58,201.5,728.35,201.28z"/>
</g>
<g>
	<g>
		<path class="st0" d="M415.04,78.8h-52.85c-4.81,0-8.72,3.9-8.72,8.72v22.05c0,15.17-5.48,24.58-17.28,24.58V34.99h17.28v39.89
			h61.57V78.8z"/>
	</g>
	<g>
		<path class="st0" d="M338.35,78.8h-51.61c-4.81,0-8.72,3.9-8.72,8.72v22.05c0,15.17-5.48,24.58-17.28,24.58V34.99h17.28v39.89
			h60.33L338.35,78.8L338.35,78.8z"/>
	</g>
	<g>
		<path class="st0" d="M488.33,78.8h-49.85c-4.81,0-8.72,3.9-8.72,8.72v22.05c0,15.17-5.48,24.58-17.28,24.58V34.99h17.28v39.89
			h58.57V78.8z"/>
	</g>
	<g>
		<path class="st0" d="M487.13,134.14L487.13,134.14V29.17c0-6.93-5.61-12.54-12.54-12.54H260.77v-3.98h241.77v101.01
			C502.55,125.52,495.65,134.14,487.13,134.14z"/>
	</g>
	<rect x="260.77" y="22.7" class="st0" width="230.39" height="4"/>
</g>
<g>
	<path class="st0" d="M497.41,188.02c1.07,3.98,4.43,5.47,6.06,5.03c0.36,1.4-6.96,1.22-8.47-4.38c-1.07-4.01,1.82-7.74,5.64-8.77
		c3.8-1.03,8.18,0.78,9.23,4.78c1.51,5.6-4.74,9.4-5.12,8.03c1.62-0.44,3.8-3.4,2.73-7.38c-0.76-2.89-3.5-5.77-6.71-4.91
		C497.56,181.27,496.63,185.14,497.41,188.02z M505.59,179.99h0.55l-6.84,13.38h-0.55L505.59,179.99z"/>
</g>
<g>
	<path class="st0" d="M227.56,188.02c1.07,3.98,4.43,5.47,6.06,5.03c0.36,1.4-6.96,1.22-8.47-4.38c-1.07-4.01,1.82-7.74,5.64-8.77
		c3.8-1.03,8.18,0.78,9.23,4.78c1.51,5.6-4.74,9.4-5.12,8.03c1.62-0.44,3.8-3.4,2.73-7.38c-0.76-2.89-3.5-5.77-6.71-4.91
		C227.71,181.27,226.78,185.14,227.56,188.02z M235.74,179.99h0.55l-6.84,13.38h-0.55L235.74,179.99z"/>
</g>
</svg>
